<svg width="52" height="52" viewBox="0 0 52 52" fill="none" xmlns="http://www.w3.org/2000/svg">
<g clip-path="url(#clip0_529_1666)">
<rect width="52" height="52" rx="8" fill="#111111"/>
<path d="M28 18.5L29.5 19.5C32 21.5 33.1 23 32.1 28C32.0531 27.8533 28.5 46.5 28.5 46.5C28 49 24 49 23.5 46.5L20.9722 33.5L20.2916 30" stroke="url(#paint0_radial_529_1666)" stroke-width="5" stroke-linecap="round" stroke-linejoin="round"/>
<path d="M28 18.5L29.5 19.5C32 21.5 33.1 23 32.1 28C32.0531 27.8533 28.5 46.5 28.5 46.5C28 49 24 49 23.5 46.5L20.9722 33.5L20.2916 30" stroke="url(#paint1_radial_529_1666)" stroke-width="5" stroke-linecap="round" stroke-linejoin="round"/>
<path d="M34 24.5L42.5 10.5C43.5 8.5 41 6.00004 38.5 8.00039L23 19C23 19 18.5 21.75 19.6999 26.5" stroke="url(#paint2_linear_529_1666)" stroke-width="5" stroke-linecap="round" stroke-linejoin="round"/>
<path d="M34 24.5L42.5 10.5C43.5 8.5 41 6.00004 38.5 8.00039L23 19C23 19 18.5 21.75 19.6999 26.5" stroke="url(#paint3_radial_529_1666)" stroke-width="5" stroke-linecap="round" stroke-linejoin="round"/>
<path d="M32 27.5C30 32 23.2 33.85 19.5 27L9.50001 11C8.00001 8.50009 11 6.49979 13 7.99981L24.5 16.1" stroke="url(#paint4_linear_529_1666)" stroke-width="5" stroke-linecap="round" stroke-linejoin="round"/>
<path d="M32 27.5C30 32 23.2 33.85 19.5 27L9.50001 11C8.00001 8.50009 11 6.49979 13 7.99981L24.5 16.1" stroke="url(#paint5_radial_529_1666)" stroke-width="5" stroke-linecap="round" stroke-linejoin="round"/>
</g>
<defs>
<radialGradient id="paint0_radial_529_1666" cx="0" cy="0" r="1" gradientUnits="userSpaceOnUse" gradientTransform="translate(26 25) rotate(90) scale(16.5 16.7007)">
<stop stop-color="white" stop-opacity="0"/>
<stop offset="0.571915" stop-color="white" stop-opacity="0"/>
<stop offset="1" stop-color="white"/>
</radialGradient>
<radialGradient id="paint1_radial_529_1666" cx="0" cy="0" r="1" gradientUnits="userSpaceOnUse" gradientTransform="translate(33.5 30) rotate(-149.931) scale(10.9772 25.6039)">
<stop offset="0.460095" stop-color="white"/>
<stop offset="1" stop-color="white" stop-opacity="0"/>
</radialGradient>
<linearGradient id="paint2_linear_529_1666" x1="26.5" y1="18" x2="29.5" y2="23" gradientUnits="userSpaceOnUse">
<stop stop-color="#FF1111"/>
<stop offset="1" stop-color="#FF1111" stop-opacity="0"/>
</linearGradient>
<radialGradient id="paint3_radial_529_1666" cx="0" cy="0" r="1" gradientUnits="userSpaceOnUse" gradientTransform="translate(26 25) rotate(-20.8545) scale(11.2361 11.1704)">
<stop stop-color="#FF1111" stop-opacity="0"/>
<stop offset="0.800957" stop-color="#FF1111" stop-opacity="0"/>
<stop offset="1" stop-color="#FF1111"/>
</radialGradient>
<linearGradient id="paint4_linear_529_1666" x1="23.5" y1="16" x2="22" y2="14" gradientUnits="userSpaceOnUse">
<stop stop-color="white" stop-opacity="0"/>
<stop offset="1" stop-color="white"/>
</linearGradient>
<radialGradient id="paint5_radial_529_1666" cx="0" cy="0" r="1" gradientUnits="userSpaceOnUse" gradientTransform="translate(29 14) rotate(85.8151) scale(20.5548 11.727)">
<stop offset="0.66209" stop-color="white" stop-opacity="0"/>
<stop offset="1" stop-color="white"/>
</radialGradient>
<clipPath id="clip0_529_1666">
<rect width="52" height="52" rx="8" fill="white"/>
</clipPath>
</defs>
</svg>
